<svg width="20" height="19" viewBox="0 0 20 19" fill="none" xmlns="http://www.w3.org/2000/svg">
<path d="M15 6.33331C15 5.07353 14.4732 3.86535 13.5355 2.97456C12.5979 2.08376 11.3261 1.58331 10 1.58331C8.67392 1.58331 7.40215 2.08376 6.46447 2.97456C5.52678 3.86535 5 5.07353 5 6.33331C5 11.875 2.5 13.4583 2.5 13.4583H17.5C17.5 13.4583 15 11.875 15 6.33331Z" stroke="black" stroke-width="1.5" stroke-linecap="round" stroke-linejoin="round"/>
<path d="M11.4417 16.625C11.2952 16.8649 11.0849 17.0641 10.8319 17.2025C10.5789 17.341 10.292 17.4139 10 17.4139C9.70803 17.4139 9.42117 17.341 9.16816 17.2025C8.91515 17.0641 8.70486 16.8649 8.55835 16.625" stroke="black" stroke-width="1.5" stroke-linecap="round" stroke-linejoin="round"/>
</svg>
