<svg width="14" height="5" viewBox="0 0 14 5" fill="none" xmlns="http://www.w3.org/2000/svg">
<path d="M14 3.57143C14 3.95031 13.8361 4.31367 13.5444 4.58158C13.2527 4.84949 12.857 5 12.4444 5H11.6667C11.2541 5 10.8584 4.84949 10.5667 4.58158C10.275 4.31367 10.1111 3.95031 10.1111 3.57143V1.42857C10.1111 1.04969 10.275 0.686328 10.5667 0.418419C10.8584 0.15051 11.2541 0 11.6667 0H14V3.57143ZM0 3.57143C0 3.95031 0.163888 4.31367 0.455612 4.58158C0.747335 4.84949 1.143 5 1.55556 5H2.33333C2.74589 5 3.14155 4.84949 3.43328 4.58158C3.725 4.31367 3.88889 3.95031 3.88889 3.57143V1.42857C3.88889 1.04969 3.725 0.686328 3.43328 0.418419C3.14155 0.15051 2.74589 0 2.33333 0H0V3.57143Z" stroke="black" stroke-width="1.5" stroke-linecap="round" stroke-linejoin="round"/>
</svg>
